<?xml version="1.0" encoding="UTF-8" standalone="no"?><!DOCTYPE svg PUBLIC "-//W3C//DTD SVG 1.1//EN" "http://www.w3.org/Graphics/SVG/1.1/DTD/svg11.dtd"><svg width="100%" height="100%" viewBox="0 0 319 148" version="1.1" xmlns="http://www.w3.org/2000/svg" xmlns:xlink="http://www.w3.org/1999/xlink" xml:space="preserve" style="fill-rule:evenodd;clip-rule:evenodd;stroke-linejoin:round;stroke-miterlimit:1.41421;"><path d="M82.8,123.2c0,0.2 0.1,0.4 0.2,0.5c0,0.1 0.2,0.2 0.4,0.3c0.2,0.1 0.4,0.1 0.7,0.1c0.2,0 0.4,0 0.6,-0.1c0.2,0 0.3,-0.1 0.4,-0.2c0.1,-0.1 0.1,-0.2 0.1,-0.3c0,-0.1 0,-0.2 -0.1,-0.3c-0.1,-0.1 -0.2,-0.1 -0.4,-0.2c-0.1,-0.1 -0.4,-0.1 -0.8,-0.2c-0.4,0 -0.7,-0.1 -0.9,-0.2c-0.2,-0.1 -0.4,-0.3 -0.5,-0.4c-0.1,-0.2 -0.2,-0.3 -0.2,-0.5c0,-0.2 0.1,-0.3 0.2,-0.5c0.2,-0.2 0.4,-0.3 0.6,-0.4c0.2,-0.1 0.5,-0.1 0.8,-0.1c0.4,0 0.6,0 0.9,0.1c0.3,0.1 0.5,0.2 0.6,0.4c0.1,0.2 0.2,0.4 0.2,0.6l-0.6,0c0,-0.2 -0.1,-0.4 -0.3,-0.5c-0.2,-0.1 -0.5,-0.2 -0.8,-0.2c-0.4,0 -0.6,0.1 -0.8,0.2c-0.1,0.1 -0.2,0.2 -0.2,0.4c0,0.1 0.1,0.2 0.2,0.3c0.1,0.1 0.4,0.2 0.9,0.3c0.5,0.1 0.8,0.1 1,0.2c0.3,0.1 0.5,0.2 0.6,0.4c0.1,0.1 0.2,0.3 0.1,0.5c0,0.2 -0.1,0.4 -0.2,0.6c-0.2,0.2 -0.3,0.3 -0.6,0.4c-0.3,0 -0.6,0.1 -0.9,0.1c-0.4,0 -0.7,-0.1 -1,-0.2c-0.2,-0.1 -0.4,-0.2 -0.6,-0.4c-0.1,-0.2 -0.2,-0.4 -0.2,-0.7l0.6,0Zm-63.2,0.7c-0.2,0.2 -0.5,0.2 -0.8,0.2c-0.3,0 -0.5,-0.1 -0.8,-0.2c-0.2,-0.1 -0.4,-0.3 -0.5,-0.5c-0.1,-0.2 -0.2,-0.5 -0.2,-0.8c0,-0.3 0,-0.5 0.1,-0.7c0.1,-0.2 0.3,-0.4 0.5,-0.6c0.2,-0.1 0.5,-0.2 0.9,-0.2c0.3,0 0.5,0.1 0.7,0.2c0.2,0.1 0.3,0.3 0.5,0.6l0.6,-0.1c-0.1,-0.3 -0.3,-0.6 -0.6,-0.8c-0.3,-0.2 -0.7,-0.3 -1.1,-0.3c-0.4,0 -0.8,0.1 -1.1,0.2c-0.3,0.2 -0.6,0.4 -0.8,0.7c-0.2,0.3 -0.3,0.6 -0.3,1c0,0.4 0.1,0.7 0.2,1c0.2,0.3 0.4,0.6 0.7,0.7c0.3,0.2 0.7,0.2 1.2,0.2c0.5,0 0.9,-0.1 1.2,-0.3c0.3,-0.2 0.5,-0.5 0.7,-0.9l-0.6,-0.1c-0.1,0.3 -0.3,0.5 -0.5,0.7l0,0Zm11.9,-1.3l0,1.4c-0.3,0.2 -0.6,0.3 -0.9,0.4c-0.3,0 -0.6,0.1 -0.9,0.1c-0.4,0 -0.8,0 -1.2,-0.2c-0.3,-0.2 -0.6,-0.4 -0.8,-0.7c-0.2,-0.3 -0.3,-0.6 -0.3,-1c0,-0.3 0.1,-0.7 0.3,-1c0.2,-0.3 0.5,-0.5 0.8,-0.7c0.4,-0.1 0.8,-0.2 1.2,-0.2c0.3,0 0.6,0 0.9,0.1c0.2,0.1 0.5,0.2 0.6,0.4c0.1,0.1 0.2,0.3 0.3,0.6l-0.5,0.1c0,-0.2 -0.1,-0.4 -0.2,-0.5c-0.1,-0.1 -0.2,-0.2 -0.4,-0.3c-0.2,-0.1 -0.4,-0.1 -0.6,-0.1c-0.3,0 -0.5,0 -0.7,0.1c-0.2,0.1 -0.4,0.2 -0.5,0.3c-0.1,0.1 -0.2,0.3 -0.3,0.4c-0.1,0.3 -0.2,0.5 -0.2,0.8c0,0.3 0.1,0.6 0.2,0.8c0.1,0.2 0.3,0.4 0.6,0.5c0.2,0.1 0.5,0.2 0.8,0.2c0.2,0 0.5,0 0.7,-0.1c0.3,-0.1 0.5,-0.2 0.6,-0.3l0,-0.7l-1.3,0l-0.1,0l0,-0.4l1.9,0Zm41.7,0l0,1.4c-0.3,0.2 -0.6,0.3 -0.9,0.4c-0.3,0 -0.6,0.1 -0.9,0.1c-0.4,0 -0.8,0 -1.2,-0.2c-0.3,-0.2 -0.6,-0.4 -0.8,-0.7c-0.2,-0.3 -0.3,-0.6 -0.3,-1c0,-0.3 0.1,-0.7 0.3,-1c0.2,-0.3 0.5,-0.5 0.8,-0.7c0.4,-0.1 0.8,-0.2 1.2,-0.2c0.3,0 0.6,0 0.9,0.1c0.2,0.1 0.5,0.2 0.6,0.4c0.1,0.1 0.2,0.3 0.3,0.6l-0.5,0.1c0,-0.2 -0.1,-0.4 -0.2,-0.5c-0.1,-0.1 -0.2,-0.2 -0.4,-0.3c-0.2,-0.1 -0.4,-0.1 -0.6,-0.1c-0.3,0 -0.5,0 -0.7,0.1c-0.2,0.1 -0.4,0.2 -0.5,0.3c-0.1,0.1 -0.2,0.3 -0.3,0.4c-0.1,0.3 -0.2,0.5 -0.2,0.8c0,0.3 0.1,0.6 0.2,0.8c0.1,0.2 0.3,0.4 0.6,0.5c0.2,0.1 0.5,0.2 0.8,0.2c0.2,0 0.5,0 0.7,-0.1c0.3,-0.1 0.5,-0.2 0.6,-0.3l0,-0.7l-1.3,0l-0.1,0l0,-0.4l1.9,0Zm-51.2,-0.4l2.3,0l0,-1.5l0.6,0l0,3.8l-0.6,0l0,-1.8l-2.3,0l0,1.8l-0.6,0l0,-3.8l0.6,0l0,1.5Zm37.6,0l2.3,0l0,-1.5l0.6,0l0,3.8l-0.6,0l0,-1.8l-2.3,0l0,1.8l-0.6,0l0,-3.8l0.6,0l0,1.5Zm8.7,-1.5l0,3.8l-0.6,0l0,-3.8l0.6,0Zm-25.3,0l1.8,3.8l-0.7,0l-0.5,-1.1l-1.9,0l-0.5,1.1l-0.6,0l1.7,-3.8l0.7,0Zm-28.3,0l1.8,3.8l-0.7,0l-0.5,-1.1l-1.9,0l-0.5,1.1l-0.6,0l1.7,-3.8l0.7,0Zm60.1,1.5l2.3,0l0,-1.5l0.6,0l0,3.8l-0.6,0l0,-1.8l-2.3,0l0,1.8l-0.6,0l0,-3.8l0.6,0l0,1.5Zm-34.6,-1.5l0,0.4l-2.6,0l0,1.2l2.5,0l0,0.4l-2.5,0l0,1.3l2.7,0l0,0.5l-3.3,0l0,-3.8l3.2,0Zm26.5,0l0,0.4l-2.6,0l0,1.2l2.5,0l0,0.4l-2.5,0l0,1.3l2.7,0l0,0.5l-3.3,0l0,-3.8l3.2,0Zm-14.9,0l0,0.4l-2.6,0l0,1.2l2.5,0l0,0.4l-2.5,0l0,1.3l2.7,0l0,0.5l-3.3,0l0,-3.8l3.2,0Zm-40,0l0,0.4l-2.6,0l0,1.2l2.5,0l0,0.4l-2.5,0l0,1.3l2.7,0l0,0.5l-3.3,0l0,-3.8l3.2,0Zm70.1,0l0,0.4l-1.5,0l0,3.3l-0.6,0l0,-3.3l-1.4,0l0,-0.4l3.5,0Zm-33.8,0l0,0.4l-1.5,0l0,3.3l-0.6,0l0,-3.3l-1.4,0l0,-0.4l3.5,0Zm-42.1,-0.2c0.4,0 0.7,0 0.9,0.1c0.2,0.1 0.4,0.2 0.5,0.4c0.1,0.2 0.2,0.4 0.2,0.6c0,0.3 -0.1,0.5 -0.3,0.7c-0.2,0.2 -0.5,0.4 -0.9,0.4c0.2,0.1 0.3,0.1 0.4,0.2c0.2,0.2 0.3,0.3 0.3,0.4l0.8,1l-0.7,0l-0.6,-0.8c-0.1,-0.2 -0.3,-0.4 -0.4,-0.5c-0.1,-0.2 -0.2,-0.3 -0.3,-0.3c-0.1,0 -0.2,-0.1 -0.3,-0.1l-1,0l0,1.7l-0.6,0l0,-3.8l2,0Zm48.6,0c0.4,0 0.7,0 0.9,0.1c0.2,0.1 0.4,0.2 0.5,0.4c0.1,0.2 0.2,0.4 0.2,0.6c0,0.3 -0.1,0.5 -0.3,0.7c-0.2,0.2 -0.5,0.4 -0.9,0.4c0.2,0.1 0.3,0.1 0.4,0.2c0.2,0.2 0.3,0.3 0.3,0.4l0.8,1l-0.7,0l-0.6,-0.8c-0.1,-0.2 -0.3,-0.4 -0.4,-0.5c-0.1,-0.2 -0.2,-0.3 -0.3,-0.3c-0.1,0 -0.2,-0.1 -0.3,-0.1l-1,0l0,1.7l-0.6,0l0,-3.8l2,0Zm-20.3,0c0.4,0 0.7,0 0.9,0.1c0.2,0.1 0.4,0.2 0.5,0.4c0.1,0.2 0.2,0.4 0.2,0.6c0,0.3 -0.1,0.5 -0.3,0.7c-0.2,0.2 -0.5,0.4 -0.9,0.4c0.2,0.1 0.3,0.1 0.4,0.2c0.2,0.2 0.4,0.3 0.3,0.4l0.8,1l-0.7,0l-0.6,-0.8c-0.1,-0.2 -0.3,-0.4 -0.4,-0.5c-0.1,-0.2 -0.2,-0.3 -0.3,-0.3c-0.1,0 -0.2,-0.1 -0.3,-0.1l-1,0l0,1.7l-0.6,0l0,-3.8l2,0Zm9.1,2.4l-0.5,-1c-0.1,-0.3 -0.2,-0.6 -0.3,-0.8c0,0.2 -0.1,0.5 -0.2,0.7l-0.5,1.1l1.5,0Zm-28.3,0l-0.5,-1c-0.1,-0.3 -0.2,-0.6 -0.3,-0.8c0,0.2 -0.1,0.5 -0.2,0.7l-0.5,1.1l1.5,0Zm-9.1,-0.5l-1.3,0l0,-1.3l1.4,0c0.3,0 0.6,0.1 0.7,0.2c0.2,0.1 0.2,0.3 0.2,0.4c0,0.1 0,0.2 -0.1,0.3c-0.1,0.1 -0.2,0.2 -0.3,0.2c-0.1,0.1 -0.4,0.2 -0.6,0.2l0,0Zm28.3,0l-1.3,0l0,-1.3l1.4,0c0.3,0 0.6,0.1 0.7,0.2c0.2,0.1 0.2,0.3 0.2,0.4c0,0.1 0,0.2 -0.1,0.3c-0.1,0.1 -0.2,0.2 -0.3,0.2c-0.1,0.1 -0.3,0.2 -0.6,0.2l0,0Zm20.3,0l-1.3,0l0,-1.3l1.4,0c0.3,0 0.6,0.1 0.7,0.2c0.2,0.1 0.2,0.3 0.2,0.4c0,0.1 0,0.2 -0.1,0.3c-0.1,0.1 -0.2,0.2 -0.3,0.2c-0.1,0.1 -0.3,0.2 -0.6,0.2l0,0Zm55.9,-2.1c-6.5,0 -9.9,-3.7 -10.2,-11.1l5.8,-1.2c0.1,4.8 1.5,7.2 4.2,7.2c1,0 1.8,-0.3 2.3,-0.9c0.5,-0.6 0.7,-1.4 0.7,-2.5c0,-1 -0.2,-1.9 -0.6,-2.8c-0.4,-0.8 -0.8,-1.5 -1.3,-2.1c-0.5,-0.5 -1.2,-1.2 -2.1,-2l-4.8,-4.2c-1.4,-1.2 -2.5,-2.5 -3.2,-3.8c-0.7,-1.3 -1,-3 -1,-5c0,-2.8 0.8,-5 2.5,-6.6c1.7,-1.6 4,-2.4 6.9,-2.4c1.3,0 2.5,0.2 3.6,0.5c1,0.3 1.9,0.8 2.6,1.4c0.7,0.6 1.2,1.3 1.7,2.2c0.5,0.9 0.8,1.8 1,2.7c0.2,0.9 0.4,2 0.5,3.1l-5.7,1.1c0,-0.7 -0.1,-1.4 -0.1,-1.9c-0.1,-0.5 -0.2,-1.1 -0.3,-1.6c-0.2,-0.6 -0.4,-1 -0.6,-1.4c-0.3,-0.3 -0.6,-0.6 -1,-0.8c-0.4,-0.2 -0.9,-0.3 -1.5,-0.2c-1,0.1 -1.7,0.4 -2.3,1c-0.6,0.6 -0.8,1.4 -0.8,2.4c0,1.2 0.2,2.1 0.7,2.9c0.5,0.8 1.2,1.6 2.2,2.4l4.8,4.1c0.8,0.7 1.5,1.4 2.1,2.1c0.6,0.7 1.2,1.4 1.7,2.3c0.5,0.9 0.9,1.8 1.2,2.9c0.3,1 0.4,2.1 0.4,3.3c0,2.7 -0.8,4.8 -2.5,6.5c-1.9,1.6 -4.1,2.4 -6.9,2.4l0,0Zm23,0c-1.6,0 -3,-0.2 -4.2,-0.6c-1.2,-0.4 -2.2,-0.9 -3,-1.6c-0.8,-0.7 -1.4,-1.6 -1.9,-2.6c-0.5,-1 -0.8,-2.2 -1,-3.4c-0.2,-1.2 -0.3,-2.5 -0.3,-4l0,-12.8c0,-1.6 0.1,-3 0.3,-4.2c0.2,-1.2 0.6,-2.4 1,-3.4c0.5,-1 1.1,-1.9 1.9,-2.6c0.8,-0.7 1.8,-1.2 3,-1.6c1.2,-0.4 2.6,-0.6 4.2,-0.6c1.8,0 3.4,0.2 4.7,0.7c1.3,0.5 2.3,1.2 3.1,2.1c0.8,0.9 1.3,2 1.6,3.3c0.3,1.3 0.5,2.7 0.5,4.4l0,3.1l-6.4,0l0,-3.1c0,-1.8 -0.1,-3 -0.3,-3.7c-0.4,-1.2 -1.3,-1.9 -2.8,-2l-0.4,0c-0.6,0 -1.1,0.1 -1.5,0.2c-0.4,0.1 -0.8,0.3 -1,0.6c-0.3,0.3 -0.5,0.6 -0.6,0.9c-0.1,0.3 -0.3,0.7 -0.4,1.3c-0.1,0.5 -0.1,1 -0.2,1.4l0,17.1c0,2.1 0.3,3.7 0.8,4.6c0.5,0.9 1.5,1.4 2.9,1.4c0.5,0 0.9,-0.1 1.3,-0.2c0.4,-0.1 0.7,-0.2 0.9,-0.4c0.2,-0.2 0.5,-0.4 0.6,-0.7c0.2,-0.3 0.3,-0.6 0.4,-0.9c0.1,-0.3 0.2,-0.6 0.2,-1.1c0,-0.5 0.1,-0.9 0.1,-1.2l0,-4.7l6.4,0l0,3c0,1.4 -0.1,2.6 -0.3,3.7c-0.2,1.1 -0.5,2.1 -1,3.1c-0.5,1 -1.1,1.7 -1.8,2.4c-0.7,0.6 -1.7,1.1 -2.8,1.5c-1.163,0.388 -2.419,0.587 -3.86,0.599l-0.14,0.001l0,0Zm51,0c-3.8,0 -6.5,-1 -8.1,-3.1c-1.6,-2 -2.5,-5 -2.5,-9l0,-13.4c0,-1.9 0.2,-3.6 0.6,-5c0.4,-1.4 1,-2.7 1.8,-3.7c0.8,-1 1.9,-1.8 3.3,-2.3c1.4,-0.5 3,-0.8 5,-0.8c3.8,0 6.5,1 8.1,3c1.6,2 2.5,5 2.5,8.8l0,13.5c0,1.9 -0.2,3.6 -0.6,5c-0.4,1.4 -1,2.7 -1.8,3.8c-0.8,1.1 -1.9,1.9 -3.3,2.4c-1.4,0.5 -3.1,0.8 -5,0.8Zm25.5,0c-3.8,0 -6.5,-1 -8.1,-3.1c-1.6,-2 -2.5,-5 -2.5,-9l0,-13.4c0,-1.9 0.2,-3.6 0.6,-5c0.4,-1.4 1,-2.7 1.8,-3.7c0.8,-1 1.9,-1.8 3.3,-2.3c1.4,-0.5 3,-0.8 5,-0.8c3.8,0 6.5,1 8.1,3c1.6,2 2.5,5 2.5,8.8l0,13.5c0,1.9 -0.2,3.6 -0.6,5c-0.4,1.4 -1,2.7 -1.8,3.8c-0.8,1.1 -1.9,1.9 -3.3,2.4c-1.4,0.5 -3.1,0.8 -5,0.8Zm-61.9,-36.9l6.7,0l0,15.2l7.5,0l0,-15.2l6.7,0l0,36.5l-6.7,0l0,-16.5l-7.5,0l0,16.5l-6.7,0l0,-36.5Zm77.4,0l6.7,0l0,31.9l8.8,0l0,4.6l-15.5,0l0,-36.5Zm-193.1,32.3c-0.2,-0.3 -0.4,-0.5 -0.8,-0.7c-0.3,-0.2 -0.7,-0.2 -1.1,-0.2c-0.6,0 -1.1,0.2 -1.5,0.5c-0.4,0.4 -0.6,0.8 -0.6,1.5c0,0.3 0.1,0.6 0.3,0.9c0.2,0.3 0.4,0.5 0.8,0.7c0.3,0.2 0.7,0.3 1.1,0.3c0.4,0 0.7,-0.1 1.1,-0.2c0.3,-0.2 0.6,-0.4 0.8,-0.7c0.2,-0.3 0.3,-0.6 0.3,-1c-0.1,-0.5 -0.2,-0.8 -0.4,-1.1Zm25.5,-0.7c-0.3,-0.2 -0.7,-0.2 -1.1,-0.2c-0.6,0 -1.1,0.2 -1.5,0.5c-0.4,0.4 -0.6,0.8 -0.6,1.5c0,0.3 0.1,0.6 0.3,0.9c0.2,0.3 0.4,0.5 0.8,0.7c0.3,0.2 0.7,0.3 1.1,0.3c0.4,0 0.7,-0.1 1.1,-0.2c0.3,-0.2 0.6,-0.4 0.8,-0.7c0.2,-0.3 0.3,-0.6 0.3,-1c0,-0.4 -0.1,-0.7 -0.3,-1c-0.3,-0.4 -0.6,-0.6 -0.9,-0.8l0,0Zm-16.7,-0.1l0,0.5l-2.6,0l0,1.2l2.5,0l0,0.4l-2.5,0l0,1.3l2.7,0l0,0.4l-3.3,0l0,-3.8l3.2,0Zm44.5,0l0,0.5l-2.6,0l0,1.2l2.5,0l0,0.4l-2.5,0l0,1.3l2.7,0l0,0.4l-3.3,0l0,-3.8l3.2,0Zm-77.7,1.8l0,1.4c-0.3,0.2 -0.6,0.3 -0.9,0.4c-0.3,0 -0.6,0.1 -0.9,0.1c-0.4,0 -0.8,0 -1.2,-0.2c-0.3,-0.2 -0.6,-0.4 -0.8,-0.7c-0.2,-0.3 -0.3,-0.6 -0.3,-1c0,-0.3 0.1,-0.7 0.3,-1c0.2,-0.3 0.5,-0.5 0.8,-0.7c0.4,-0.1 0.8,-0.2 1.2,-0.2c0.3,0 0.6,0 0.9,0.1c0.2,0.1 0.5,0.2 0.6,0.4c0.1,0.1 0.2,0.3 0.3,0.6l-0.5,0.1c0,-0.2 -0.1,-0.4 -0.2,-0.5c-0.1,-0.1 -0.2,-0.2 -0.4,-0.3c-0.2,-0.1 -0.4,-0.1 -0.6,-0.1c-0.3,0 -0.5,0 -0.7,0.1c-0.2,0.1 -0.4,0.2 -0.5,0.3c-0.1,0.1 -0.2,0.3 -0.3,0.4c-0.1,0.3 -0.2,0.5 -0.2,0.8c0,0.3 0.1,0.6 0.2,0.8c0.1,0.2 0.3,0.4 0.6,0.5c0.2,0.1 0.5,0.2 0.8,0.2c0.2,0 0.5,0 0.7,-0.1c0.3,-0.1 0.5,-0.2 0.6,-0.3l0,-0.7l-1.3,0l-0.1,0l0,-0.4l1.9,0Zm73.6,0l0,1.4c-0.3,0.2 -0.6,0.3 -0.9,0.4c-0.3,0 -0.6,0.1 -0.9,0.1c-0.5,0 -0.9,0 -1.3,-0.2c-0.3,-0.2 -0.6,-0.4 -0.8,-0.7c-0.2,-0.3 -0.3,-0.6 -0.3,-1c0,-0.3 0.1,-0.7 0.3,-1c0.2,-0.3 0.5,-0.5 0.8,-0.7c0.4,-0.1 0.8,-0.2 1.2,-0.2c0.3,0 0.6,0 0.9,0.1c0.2,0.1 0.5,0.2 0.6,0.4c0.1,0.1 0.2,0.3 0.3,0.6l-0.5,0.1c0,-0.2 -0.1,-0.4 -0.2,-0.5c-0.1,-0.1 -0.2,-0.2 -0.4,-0.3c-0.2,-0.1 -0.4,-0.1 -0.6,-0.1c-0.3,0 -0.5,0 -0.7,0.1c-0.2,0.1 -0.4,0.2 -0.5,0.3c-0.1,0.1 -0.2,0.3 -0.3,0.4c-0.1,0.3 -0.2,0.5 -0.2,0.8c0,0.3 0.1,0.6 0.2,0.8c0.1,0.2 0.3,0.4 0.6,0.5c0.2,0.1 0.5,0.2 0.8,0.2c0.2,0 0.5,0 0.7,-0.1c0.3,-0.1 0.5,-0.2 0.6,-0.3l0,-0.7l-1.3,0l0,-0.4l1.9,0Zm-34.9,0.1l2.2,-1.9l0.8,0l-1.9,1.5l2,2.2l-0.8,0l-1.6,-1.9l-0.7,0.6l0,1.3l-0.6,0l0,-3.7l0.6,0l0,1.9Zm-35.9,-2l1.9,3.8l-0.7,0l-0.5,-1.1l-1.9,0l-0.5,1.1l-0.6,0l1.7,-3.8l0.6,0Zm26.4,3.8l-0.7,0l-0.6,-0.8c-0.1,-0.2 -0.3,-0.4 -0.4,-0.5c-0.1,-0.2 -0.2,-0.3 -0.3,-0.3c-0.1,0 -0.2,-0.1 -0.3,-0.1l-1,0l0,1.7l-0.6,0l0,-3.8l2,0c0.4,0 0.7,0 0.9,0.1c0.2,0.1 0.4,0.2 0.5,0.4c0.1,0.2 0.2,0.4 0.2,0.6c0,0.3 -0.1,0.5 -0.3,0.7c-0.2,0.1 -0.5,0.3 -0.9,0.3c0.2,0.1 0.3,0.1 0.4,0.2c0.2,0.1 0.3,0.3 0.5,0.5l0.6,1Zm-13,-3.9l1.1,2.7c0.1,0.3 0.2,0.5 0.2,0.6c0,-0.1 0.1,-0.3 0.2,-0.6l1.1,-2.6l0.8,0l0,3.8l0,-0.1l-0.6,0l0,-3.2l-1.3,3.2l-0.5,0l-1.3,-3.2l0,3.2l-0.6,0l0,-3.8l0.9,0Zm-6.5,3.1l0,-3l0.6,0l0,3.8l-0.6,0l-2.3,-3l0,3l-0.6,0l0,-3.8l0.6,0l2.3,3Zm-3.9,-3l0,3.8l-0.6,0l0,-3.8l0.6,0Zm39.4,3l0,-3l0.6,0l0,3.8l-0.6,0l-2.3,-3l0,3l-0.6,0l0,-3.8l0.6,0l2.3,3Zm12.9,-2.9l0,3.3l2.2,0l0,0.4l-2.8,0l0,-3.7l0.6,0Zm6.1,-0.1l0,0.4l-2.6,0l0,1.2l2.5,0l0,0.4l-2.5,0l0,1.3l2.7,0l0,0.5l-3.3,0l0,-3.8l3.2,0Zm-12.2,-0.1l0.7,2.5c0.1,0.3 0.1,0.5 0.2,0.8c0.1,-0.4 0.2,-0.6 0.2,-0.7l0.8,-2.5l0.7,0l0.6,1.9c0.1,0.4 0.2,0.9 0.3,1.3c0,-0.2 0.1,-0.5 0.2,-0.8l0.7,-2.4l0.6,0l-1.2,3.7l-0.6,0l-0.9,-2.9c0,-0.2 -0.1,-0.3 -0.1,-0.4c0,0.1 -0.1,0.3 -0.1,0.4l-0.9,2.9l-0.6,0l-1.2,-3.8l0.6,0Zm14.6,0c0.4,0 0.6,0.1 0.8,0.1c0.3,0.1 0.5,0.2 0.7,0.3c0.2,0.2 0.4,0.4 0.4,0.5c0.1,0.3 0.2,0.6 0.2,0.9c0,0.3 0,0.6 -0.1,0.8c-0.1,0.3 -0.2,0.5 -0.3,0.6c-0.1,0.1 -0.3,0.2 -0.4,0.3c-0.1,0.1 -0.3,0.2 -0.5,0.2c-0.2,0.1 -0.4,0.1 -0.7,0.1l-1.6,0l0,-3.8l1.5,0Zm0.1,3.5c0.3,0 0.5,-0.1 0.7,-0.1c0.2,0 0.3,-0.1 0.4,-0.2c0.1,-0.1 0.2,-0.3 0.3,-0.5c0.1,-0.2 0.1,-0.4 0.1,-0.7c0,-0.4 0,-0.7 -0.2,-0.9c-0.2,-0.2 -0.4,-0.3 -0.6,-0.4c-0.2,-0.1 -0.5,-0.1 -0.8,-0.1l-0.9,0l0,2.9l1,0Zm-43.1,-0.4c-0.3,0.3 -0.7,0.4 -1.1,0.4c-0.4,0 -0.8,-0.1 -1.1,-0.4c-0.3,-0.3 -0.4,-0.6 -0.4,-1.1c0,-0.6 0.2,-1 0.5,-1.2c0.3,-0.2 0.7,-0.4 1.1,-0.4c0.3,0 0.6,0.1 0.8,0.2c0.2,0.1 0.4,0.3 0.5,0.5c0.1,0.2 0.2,0.5 0.2,0.8c0,0.6 -0.2,1 -0.5,1.2Zm26.3,0c-0.3,0.3 -0.7,0.4 -1.1,0.4c-0.4,0 -0.8,-0.1 -1.1,-0.4c-0.3,-0.3 -0.4,-0.6 -0.4,-1.1c0,-0.6 0.1,-1 0.5,-1.2c0.3,-0.2 0.7,-0.4 1.1,-0.4c0.3,0 0.6,0.1 0.8,0.2c0.2,0.1 0.4,0.3 0.5,0.5c0.1,0.2 0.2,0.5 0.2,0.8c-0.1,0.6 -0.3,1 -0.5,1.2Zm-46.7,-0.8l-0.5,-1c-0.1,-0.3 -0.2,-0.6 -0.3,-0.8c0,0.2 -0.1,0.5 -0.2,0.7l-0.5,1.1l1.5,0Zm24.1,-0.5c0.3,0 0.5,-0.1 0.6,-0.1c0.1,0 0.2,-0.1 0.3,-0.2c0.1,-0.1 0.1,-0.2 0.1,-0.3c0,-0.1 0,-0.3 -0.2,-0.4c-0.1,-0.1 -0.4,-0.2 -0.7,-0.2l-1.4,0l0,1.2l1.3,0Zm147.6,-1.4c0.5,0.2 1,0.3 1.7,0.3c0.6,0 1.2,-0.1 1.7,-0.3c0.5,-0.2 0.8,-0.4 1.1,-0.7c0.3,-0.3 0.5,-0.7 0.6,-1.2c0.2,-0.5 0.3,-1 0.3,-1.5c0.1,-0.5 0.1,-1.1 0.1,-1.8l0,-16.6c0,-0.9 0,-1.6 -0.1,-2.2c-0.1,-0.6 -0.3,-1.1 -0.5,-1.7c-0.3,-0.5 -0.6,-0.9 -1.2,-1.2c-0.5,-0.3 -1.2,-0.4 -2,-0.4c-0.8,0 -1.5,0.1 -2,0.4c-0.5,0.3 -0.9,0.6 -1.2,1.2c-0.3,0.5 -0.4,1.1 -0.5,1.7c-0.1,0.6 -0.1,1.3 -0.1,2.2l0,16.6c0,0.7 0,1.3 0.1,1.8l0.3,1.5c0.2,0.5 0.4,0.9 0.6,1.2c0.2,0.2 0.6,0.5 1.1,0.7Zm25.4,0c0.5,0.2 1,0.3 1.7,0.3c0.6,0 1.2,-0.1 1.7,-0.3c0.5,-0.2 0.8,-0.4 1.1,-0.7c0.3,-0.3 0.5,-0.7 0.6,-1.2c0.2,-0.5 0.3,-1 0.3,-1.5c0.1,-0.5 0.1,-1.1 0.1,-1.8l0,-16.6c0,-0.9 0,-1.6 -0.1,-2.2c-0.1,-0.6 -0.3,-1.1 -0.5,-1.7c-0.3,-0.5 -0.6,-0.9 -1.2,-1.2c-0.5,-0.3 -1.2,-0.4 -2,-0.4c-0.8,0 -1.5,0.1 -2,0.4c-0.5,0.3 -0.9,0.6 -1.2,1.2c-0.3,0.5 -0.4,1.1 -0.5,1.7c-0.1,0.6 -0.1,1.3 -0.1,2.2l0,16.6c0,0.7 0,1.3 0.1,1.8l0.3,1.5c0.2,0.5 0.4,0.9 0.6,1.2c0.3,0.2 0.7,0.5 1.1,0.7Zm-153.007,-31.394c5.846,0.03 11.026,3.391 14.007,2.894l2.4,4.8c-8.4,-2.8 -16.1,-5.8 -21.5,-0.7c-0.4,0.4 -1.2,1.8 -0.7,1.5c5.1,-2.9 10.4,-1.3 15.7,0.1c1.5,0.4 6.6,2.6 8.1,2.3l2.1,4.8c3.2,-0.7 3.8,3.4 4.9,5.5c3.1,-1.3 3.8,4.5 5.3,6.6l-35.6,-0.1l0,1.9l-11.6,0l0,-1.9l-35.6,0.1c1.5,-2.1 2.2,-8 5.3,-6.6c1.1,-2.1 1.6,-6.3 4.9,-5.5l2.1,-4.8c1.5,0.3 6.5,-1.9 8.1,-2.3c5.3,-1.4 10.6,-3.1 15.7,-0.1c0.5,0.3 -0.3,-1.1 -0.7,-1.5c-5.3,-5.1 -13.1,-2.1 -21.5,0.7l2.4,-4.8c4.8,0.8 15.3,-8.4 25.1,2.4c3.675,-4.05 7.448,-5.288 10.983,-5.295l0.11,0.001Zm15.307,14.994c-3,2.5 -13.9,-1 -21,-0.7c4.7,-4.9 15.4,-0.7 21,0.7Zm-52.7,0c5.7,-1.4 16.4,-5.6 21,-0.7c-7.1,-0.3 -18,3.2 -21,0.7Zm36.384,-23.21c4.015,0.045 7.908,1.697 11.216,2.21l1.8,5.3c-8.3,-2.2 -17.9,-7.3 -21.2,2.3l-3.7,0c-3.2,-9.6 -12.9,-4.4 -21.1,-2.3l1.8,-5.3c5.9,-0.9 13.5,-5.3 20.3,1.6c0.6,0.7 1.3,0.5 1.8,0c2.911,-2.911 5.946,-3.811 8.919,-3.811l0.165,0.001Zm-18.629,-8.666c2.337,0.017 5.072,0.772 8.145,2.776l2.3,0.5c3.7,-2.3 8.7,-3.8 13.3,-2.4c0.6,0.1 1.2,0.3 1.7,0.6l2.2,4.8c0.3,0.5 -1,-0.1 -1.5,-0.3c-3.9,-1.5 -8.1,-1.6 -10.6,-0.7l0.8,1.6c-2.3,-1.1 -5.9,3 -8.4,1.4l-0.4,0.4c-0.8,0 -1.5,-0.1 -2,-0.5c-1.1,-0.1 -1.4,-0.2 -1.5,-0.6l1.1,-1l0,-0.8c-4,-1.9 -8.4,-1.5 -13.2,-0.1l1.3,-3.3c1.531,-1.258 3.78,-2.366 6.633,-2.376l0.122,0Zm142.945,7.376c-6.5,0 -9.9,-3.7 -10.2,-11.1l5.8,-1.2c0.1,4.8 1.5,7.2 4.2,7.2c1,0 1.8,-0.3 2.3,-0.9c0.5,-0.6 0.7,-1.4 0.7,-2.5c0,-1 -0.2,-1.9 -0.6,-2.8c-0.4,-0.8 -0.8,-1.5 -1.3,-2.1c-0.5,-0.5 -1.2,-1.2 -2.1,-2l-4.8,-4.2c-1.4,-1.2 -2.5,-2.5 -3.2,-3.8c-0.7,-1.3 -1,-3 -1,-5c0,-2.8 0.8,-5 2.5,-6.6c1.7,-1.6 4,-2.4 6.9,-2.4c1.3,0 2.5,0.2 3.6,0.5c1,0.3 1.9,0.8 2.6,1.4c0.7,0.6 1.2,1.3 1.7,2.2c0.5,0.9 0.8,1.8 1,2.7c0.2,0.9 0.4,2 0.5,3.1l-5.7,1.1c0,-0.7 -0.1,-1.4 -0.1,-1.9c-0.1,-0.5 -0.2,-1.1 -0.3,-1.6c-0.2,-0.6 -0.4,-1 -0.6,-1.4c-0.3,-0.3 -0.6,-0.6 -1,-0.8c-0.4,-0.2 -0.9,-0.3 -1.5,-0.2c-1,0.1 -1.7,0.4 -2.3,1c-0.6,0.6 -0.8,1.4 -0.8,2.4c0,1.2 0.2,2.1 0.7,2.9c0.5,0.8 1.2,1.6 2.2,2.4l4.8,4.1c0.8,0.7 1.5,1.4 2.1,2.1c0.6,0.7 1.2,1.4 1.7,2.3c0.5,0.9 0.9,1.8 1.2,2.9c0.3,1 0.4,2.1 0.4,3.3c0,2.7 -0.8,4.8 -2.5,6.5c-2,1.6 -4.2,2.4 -6.9,2.4l0,0Zm114.4,-23.8l-6.4,0l0,-3.1c0,-1.8 -0.1,-3 -0.3,-3.7c-0.4,-1.2 -1.3,-1.9 -2.8,-2l-0.4,0c-0.6,0 -1.1,0.1 -1.5,0.2c-0.4,0.1 -0.8,0.3 -1,0.6c-0.3,0.3 -0.5,0.6 -0.6,0.9c-0.2,0.3 -0.3,0.7 -0.4,1.3c-0.1,0.6 -0.1,1 -0.2,1.4c-0.1,0.4 0,1 0,1.7l0,15.4c0,2.1 0.3,3.7 0.8,4.6c0.5,0.9 1.5,1.4 2.9,1.4c0.5,0 0.9,-0.1 1.3,-0.2c0.4,-0.1 0.7,-0.2 0.9,-0.4c0.2,-0.2 0.5,-0.4 0.6,-0.7c0.1,-0.3 0.3,-0.6 0.4,-0.9c0.1,-0.3 0.2,-0.6 0.2,-1.1c0,-0.5 0.1,-0.9 0.1,-1.2l0,-4.7l6.4,0l0,3c0,1.4 -0.1,2.6 -0.3,3.7c-0.2,1.1 -0.5,2.1 -1,3.1c-0.5,1 -1.1,1.7 -1.8,2.4c-0.7,0.6 -1.7,1.1 -2.8,1.5c-1.1,0.4 -2.5,0.6 -4,0.6c-1.6,0 -3,-0.2 -4.2,-0.6c-1.2,-0.4 -2.2,-0.9 -3,-1.6c-0.8,-0.7 -1.4,-1.6 -1.9,-2.6c-0.5,-1 -0.8,-2.2 -1,-3.4c-0.2,-1.2 -0.3,-2.5 -0.3,-4l0,-12.8c0,-1.6 0.1,-3 0.3,-4.2c0.2,-1.2 0.6,-2.4 1,-3.4c0.4,-1 1.1,-1.9 1.9,-2.6c0.8,-0.7 1.8,-1.2 3,-1.6c1.2,-0.4 2.6,-0.6 4.2,-0.6c1.8,0 3.4,0.2 4.7,0.7c1.3,0.5 2.3,1.2 3.1,2.1c0.8,0.9 1.3,2 1.6,3.3c0.3,1.3 0.5,2.7 0.5,4.4l0,3.1Zm-168.2,-13.1l8.4,0c1.9,0 3.6,0.2 5,0.5c1.4,0.3 2.6,0.8 3.6,1.6c1,0.7 1.8,1.7 2.3,3c0.5,1.3 0.8,2.8 0.8,4.7c0,2.3 -0.3,4.2 -1,5.6c-0.7,1.5 -1.8,2.5 -3.4,3.2l5.1,18l-6.7,0l-4.4,-16.6l-3,0l0,16.6l-6.7,0l0,-36.6l0,0Zm88.2,36.5l-8.9,0l0,-36.5l8.6,0c2.2,0 4.1,0.2 5.6,0.7c1.5,0.5 2.7,1.1 3.6,2.1c0.9,1 1.5,2.1 1.9,3.5c0.4,1.4 0.6,3.1 0.6,5.1l0,13.2c0,2.1 -0.2,3.8 -0.6,5.3c-0.4,1.5 -1,2.7 -1.9,3.7c-0.9,1 -2,1.8 -3.5,2.2c-1.5,0.5 -3.3,0.7 -5.4,0.7l0,0Zm-105.1,0l-6.7,0l0,-36.5l10.6,0c6.3,0 9.4,3.5 9.4,10.4c0,3.4 -0.9,5.9 -2.6,7.4c-1.7,1.6 -4.1,2.4 -7.2,2.4l-3.5,0l0,16.3Zm57.6,0l-15.5,0l0,-36.5l15.4,0l0,4.7l-8.7,0l0,10.5l6.9,0l0,4.7l-6.9,0l0,12l8.8,0l0,4.6Zm33,0l-6.6,0l0,-36.5l6.6,0l0,36.5Zm110.6,0l-6.3,0l0,-13.9l-7.5,-22.6l6.2,0l4.5,14.5l4.3,-14.5l6.2,0l-7.4,22.6l0,13.9Zm-54.9,0l-5.6,0l0,-36.5l4.6,0l9,20.7l0,-20.7l5.5,0l0,36.5l-4.4,0l-9.1,-21.7l0,21.7Zm-9.4,0l-15.5,0l0,-36.5l15.4,0l0,4.7l-8.7,0l0,10.5l6.9,0l0,4.7l-6.9,0l0,12l8.8,0l0,4.6Zm-33.8,-31.7l0,27l-0.2,0l1.9,0c0.7,0 1.2,-0.1 1.8,-0.2c0.5,-0.1 0.9,-0.3 1.3,-0.4c0.3,-0.2 0.6,-0.4 0.9,-0.8c0.2,-0.4 0.4,-0.7 0.5,-1c0.1,-0.3 0.2,-0.8 0.3,-1.4c0.1,-0.6 0.1,-1.2 0.1,-1.6l0,-17.4c0,-0.5 -0.1,-1.1 -0.2,-1.6c-0.1,-0.5 -0.3,-0.9 -0.5,-1.2c-0.2,-0.3 -0.5,-0.6 -0.9,-0.8c-0.4,-0.2 -0.8,-0.4 -1.3,-0.5c-0.5,-0.1 -1.2,-0.1 -1.9,-0.1l-1.8,0l0,0Zm-161.2,21.5l0,-0.9c-1.7,-1.1 -3.1,-2.2 -4.3,-3.5c-1.8,-1.2 -3.7,-2.1 -5.9,-2.5c-1.2,-0.2 -5.3,0.1 -2.4,-1.1c4.5,-2.2 10,-1.4 13.6,3c0.6,0.7 1.8,0.4 3,-0.3c3.5,-2 8.6,-3.1 13.2,0.4c-1.5,3.1 -8.5,-1.5 -13.2,1.2c-0.7,1.6 4.4,0.5 5.9,1.6c-0.9,0.5 -3.5,1.7 -5.1,2.8c-3.2,-0.3 -5.5,0.7 -7.1,2.6c-0.7,-1.1 -1.4,-2 -2.3,-2.5l0.1,-0.5l3.4,0l0.3,-0.3l0.8,0Zm1.2,-13.3c-2.7,-2.4 -5.9,-4.5 -8.3,-4.2c-0.2,-0.6 0.1,-0.9 0.9,-1.1c3,-0.8 5.2,-0.3 7,1l8.2,1.7c0.9,0.6 1.8,0.6 2.7,-0.2l4,-4c1.4,-1.4 4.4,-2.1 7.9,-2.5l0.1,0.6c-2.9,1.3 -5.8,2.6 -8.1,4.7c-0.7,0.6 -0.3,1.1 0.8,1.2l0,0.6c-2.4,0.1 -3.5,2.5 -4.5,3.8c-1.9,0 -3.9,1.2 -5.8,3.1c-0.8,-0.6 -2.2,-0.3 -2.4,-0.9c0.4,-0.8 1.4,-1.4 3.2,-1.7l0,-0.6c-1.9,-0.4 -4.5,-1.3 -5.7,-1.5l0,0Zm80.5,2.6l1.6,0c2,0 3.4,-0.4 4.2,-1.3c0.8,-0.8 1.3,-2.3 1.3,-4.3c0,-1.9 -0.4,-3.3 -1.1,-4.2c-0.7,-0.8 -2.1,-1.3 -4,-1.3l-2,0l0,11.1Zm-23.7,-10.9l0,10.8l2.2,0c1.9,0 3.2,-0.4 3.8,-1.1c0.7,-0.7 1,-2.1 1,-4.1c0,-1.1 0,-2 -0.1,-2.6c-0.1,-0.6 -0.3,-1.2 -0.6,-1.7c-0.3,-0.5 -0.8,-0.9 -1.5,-1c-0.6,-0.2 -1.5,-0.3 -2.6,-0.3l-2.2,0l0,0Zm-46.5,-0.9c-1,-0.7 -1.9,-1 -3,-0.8l-0.1,-0.4c1.3,-1.3 0.3,-1.8 -0.4,-2.1c-1.5,-0.6 -4.6,0.1 -4.6,-3.8c1.1,0.6 2.3,2.3 5.9,2.5l1.4,0.7c0.6,0.5 1.2,1.1 2.1,1.1c-0.2,0.4 0.4,0.6 1.7,0.4c1.1,-0.1 2.1,0.2 3.1,0.8c0.8,-0.2 1.6,-0.6 2.3,0.5c-0.5,0.2 -1,0.7 -1.2,0.9c-0.3,-0.7 -1.5,-0.6 -2.5,0.1c-0.6,-0.2 -1.6,1.6 -1.6,0.1l-3.1,0l0,0Z" style="fill:#fff;"/><path d="M252.057,119.612c-2.478,0 -3.78,-1.432 -3.904,-4.295l2.232,-0.468c0.057,1.862 0.589,2.793 1.596,2.793c0.391,0 0.681,-0.119 0.871,-0.356c0.189,-0.238 0.284,-0.557 0.284,-0.96c0,-0.39 -0.071,-0.748 -0.213,-1.074c-0.141,-0.325 -0.305,-0.591 -0.492,-0.797c-0.187,-0.206 -0.453,-0.462 -0.798,-0.768l-1.85,-1.605c-0.544,-0.475 -0.948,-0.969 -1.214,-1.482c-0.266,-0.511 -0.399,-1.152 -0.399,-1.922c0,-1.092 0.321,-1.941 0.963,-2.547c0.643,-0.606 1.524,-0.914 2.644,-0.925c0.516,-0.006 0.971,0.058 1.368,0.191c0.396,0.133 0.722,0.311 0.98,0.535c0.258,0.223 0.472,0.502 0.645,0.836c0.173,0.334 0.301,0.681 0.386,1.04c0.086,0.359 0.145,0.76 0.179,1.201l-2.19,0.433c-0.011,-0.283 -0.03,-0.529 -0.055,-0.738c-0.026,-0.21 -0.07,-0.422 -0.132,-0.637c-0.063,-0.215 -0.143,-0.389 -0.242,-0.522c-0.1,-0.133 -0.232,-0.239 -0.399,-0.318c-0.168,-0.08 -0.361,-0.11 -0.582,-0.093c-0.379,0.022 -0.669,0.148 -0.87,0.377c-0.201,0.229 -0.301,0.537 -0.301,0.921c0,0.454 0.089,0.826 0.267,1.117c0.178,0.291 0.457,0.603 0.836,0.938l1.834,1.595c0.305,0.278 0.572,0.547 0.798,0.807c0.227,0.261 0.442,0.557 0.649,0.892c0.207,0.333 0.364,0.701 0.472,1.102c0.107,0.403 0.161,0.827 0.161,1.274c0,1.024 -0.324,1.856 -0.972,2.496c-0.649,0.639 -1.499,0.959 -2.552,0.959Zm7.904,-0.009c-1.081,0 -1.886,-0.304 -2.415,-0.912c-0.53,-0.609 -0.794,-1.479 -0.794,-2.611l0,-3.319c0,-1.132 0.265,-2.002 0.794,-2.611c0.529,-0.607 1.334,-0.912 2.415,-0.912c1.086,0 1.898,0.305 2.432,0.912c0.535,0.609 0.802,1.479 0.802,2.611l0,3.319c0,1.132 -0.267,2.002 -0.802,2.611c-0.535,0.608 -1.346,0.912 -2.432,0.912Zm11.231,-0.161l-2.369,0l0,-0.942c-0.797,0.73 -1.604,1.094 -2.419,1.094c-0.571,0 -0.989,-0.209 -1.252,-0.627c-0.263,-0.419 -0.394,-0.934 -0.394,-1.546l0,-8.031l2.368,0l0,7.548c0,0.311 0.048,0.543 0.144,0.696c0.096,0.153 0.275,0.226 0.535,0.221c0.277,0 0.617,-0.142 1.018,-0.425l0,-8.04l2.369,0l0,10.052Zm4.635,0.135c-0.458,-0.005 -0.847,-0.081 -1.167,-0.228c-0.32,-0.148 -0.566,-0.359 -0.739,-0.633c-0.172,-0.274 -0.296,-0.582 -0.373,-0.921c-0.077,-0.34 -0.115,-0.736 -0.115,-1.189l0,-5.645l-0.993,0l0,-1.571l0.993,0l0,-2.954l2.385,0l0,2.954l1.529,0l0,1.571l-1.529,0l0,5.798c0,0.328 0.073,0.564 0.216,0.708c0.145,0.145 0.376,0.22 0.693,0.226c0.22,0.006 0.461,-0.011 0.721,-0.052l0,1.818c-0.673,0.091 -1.213,0.13 -1.621,0.118Zm5.383,-0.135l-2.369,0l0,-14.075l2.369,0l0,5c0.792,-0.752 1.626,-1.129 2.503,-1.129c0.238,0 0.452,0.041 0.642,0.123c0.189,0.083 0.344,0.193 0.466,0.331c0.122,0.139 0.224,0.303 0.306,0.493c0.082,0.189 0.14,0.384 0.174,0.585c0.034,0.201 0.051,0.415 0.051,0.641l0,8.031l-2.368,0l0,-7.504c0,-0.317 -0.047,-0.552 -0.14,-0.705c-0.094,-0.153 -0.271,-0.226 -0.531,-0.22c-0.311,0.006 -0.679,0.169 -1.103,0.492l0,7.937Zm-21.241,-1.511c0.192,0 0.349,-0.043 0.471,-0.127c0.122,-0.085 0.21,-0.216 0.264,-0.395c0.053,-0.178 0.089,-0.35 0.106,-0.518c0.017,-0.167 0.025,-0.383 0.025,-0.649l0,-3.642c0,-0.209 -0.004,-0.383 -0.013,-0.522c-0.008,-0.138 -0.028,-0.29 -0.059,-0.454c-0.031,-0.164 -0.078,-0.293 -0.14,-0.386c-0.062,-0.094 -0.147,-0.173 -0.255,-0.238c-0.107,-0.065 -0.24,-0.098 -0.398,-0.098c-0.193,0 -0.35,0.044 -0.472,0.132c-0.121,0.088 -0.209,0.22 -0.263,0.399c-0.054,0.178 -0.089,0.351 -0.106,0.518c-0.017,0.168 -0.026,0.383 -0.026,0.65l0,3.641c0,0.209 0.005,0.383 0.014,0.523c0.008,0.138 0.028,0.288 0.059,0.449c0.031,0.162 0.077,0.289 0.139,0.382c0.063,0.094 0.148,0.173 0.256,0.237c0.107,0.065 0.24,0.098 0.398,0.098Zm17.624,-16.304c-0.3,0 -0.562,-0.003 -0.785,-0.009c-0.224,-0.005 -0.483,-0.02 -0.777,-0.046c-0.295,-0.025 -0.548,-0.062 -0.76,-0.111c-0.213,-0.047 -0.43,-0.114 -0.654,-0.199c-0.223,-0.085 -0.405,-0.185 -0.543,-0.301c-0.139,-0.116 -0.253,-0.264 -0.344,-0.441c-0.09,-0.179 -0.136,-0.379 -0.136,-0.599c0,-0.843 0.473,-1.554 1.418,-2.131c-0.68,-0.232 -1.039,-0.608 -1.078,-1.129c-0.029,-0.362 0.048,-0.675 0.229,-0.938c0.181,-0.263 0.49,-0.573 0.925,-0.93c-0.374,-0.283 -0.654,-0.636 -0.841,-1.06c-0.186,-0.425 -0.28,-0.994 -0.28,-1.707c0,-1.234 0.268,-2.151 0.802,-2.75c0.536,-0.6 1.309,-0.9 2.322,-0.9c1.041,0 1.76,0.328 2.156,0.984c0.125,-0.152 0.313,-0.334 0.565,-0.543c0.252,-0.209 0.517,-0.382 0.794,-0.518l0.331,-0.152l0.56,1.324c-0.198,0.051 -0.498,0.153 -0.9,0.305c-0.402,0.153 -0.67,0.272 -0.806,0.357c0.107,0.198 0.2,0.477 0.28,0.836c0.079,0.36 0.119,0.721 0.119,1.083c0,2.298 -1.005,3.446 -3.014,3.446c-0.164,0 -0.389,-0.024 -0.674,-0.072c-0.286,-0.048 -0.472,-0.089 -0.556,-0.123c-0.193,0.289 -0.284,0.509 -0.272,0.662c0.017,0.226 0.311,0.368 0.883,0.425c0.068,0.011 0.367,0.043 0.9,0.098c0.532,0.053 0.843,0.086 0.934,0.097c0.843,0.091 1.46,0.335 1.85,0.734c0.391,0.399 0.586,0.97 0.586,1.711c0,0.889 -0.249,1.544 -0.747,1.964c-0.497,0.422 -1.327,0.633 -2.487,0.633Zm-0.017,-1.673c0.487,0 0.842,-0.062 1.065,-0.186c0.224,-0.124 0.339,-0.326 0.344,-0.603c0.017,-0.3 -0.059,-0.519 -0.229,-0.658c-0.17,-0.138 -0.478,-0.227 -0.925,-0.267l-1.596,-0.153c-0.345,0.402 -0.518,0.773 -0.518,1.113c0,0.181 0.044,0.322 0.132,0.424c0.088,0.102 0.269,0.183 0.543,0.242c0.275,0.059 0.669,0.088 1.184,0.088Zm-13.243,-1.374l-2.147,0c-0.13,-0.657 -0.213,-1.149 -0.247,-1.478c-0.141,0.464 -0.377,0.854 -0.709,1.168c-0.331,0.313 -0.756,0.471 -1.277,0.471c-0.634,-0.006 -1.154,-0.254 -1.558,-0.743c-0.405,-0.489 -0.607,-1.043 -0.607,-1.66c0,-0.583 0.096,-1.092 0.288,-1.527c0.193,-0.437 0.508,-0.81 0.947,-1.122c0.439,-0.311 0.802,-0.537 1.091,-0.679c0.288,-0.141 0.733,-0.328 1.333,-0.56c0.169,-0.068 0.297,-0.119 0.382,-0.153l0,-0.841c0,-0.452 -0.053,-0.783 -0.157,-0.993c-0.105,-0.209 -0.319,-0.313 -0.641,-0.313c-0.527,0 -0.796,0.367 -0.807,1.103l-0.034,0.629l-2.275,-0.085c0,-0.035 0.002,-0.097 0.005,-0.187c0.002,-0.091 0.004,-0.15 0.004,-0.179c0.073,-1.052 0.386,-1.825 0.938,-2.317c0.552,-0.492 1.34,-0.738 2.364,-0.738c0.991,0 1.725,0.268 2.203,0.806c0.479,0.538 0.718,1.299 0.718,2.283l0,4.594c0,0.769 0.062,1.609 0.186,2.521Zm24.168,0l-2.147,0c-0.13,-0.657 -0.213,-1.149 -0.246,-1.478c-0.142,0.464 -0.379,0.854 -0.709,1.168c-0.331,0.313 -0.757,0.471 -1.278,0.471c-0.633,-0.006 -1.153,-0.254 -1.558,-0.743c-0.405,-0.489 -0.607,-1.043 -0.607,-1.66c0,-0.583 0.097,-1.092 0.289,-1.527c0.193,-0.437 0.508,-0.81 0.947,-1.122c0.438,-0.311 0.802,-0.537 1.09,-0.679c0.289,-0.141 0.733,-0.328 1.333,-0.56c0.17,-0.068 0.297,-0.119 0.382,-0.153l0,-0.841c0,-0.452 -0.053,-0.783 -0.157,-0.993c-0.104,-0.209 -0.318,-0.313 -0.641,-0.313c-0.526,0 -0.795,0.367 -0.807,1.103l-0.033,0.629l-2.275,-0.085c0,-0.035 0.001,-0.097 0.004,-0.187c0.003,-0.091 0.005,-0.15 0.005,-0.179c0.073,-1.052 0.386,-1.825 0.937,-2.317c0.552,-0.492 1.34,-0.738 2.364,-0.738c0.991,0 1.725,0.268 2.204,0.806c0.478,0.538 0.717,1.299 0.717,2.283l0,4.594c0,0.769 0.062,1.609 0.186,2.521Zm22.887,0.161c-1.149,0 -1.975,-0.317 -2.479,-0.951c-0.504,-0.634 -0.755,-1.57 -0.755,-2.811l0,-2.843c0,-1.24 0.254,-2.176 0.763,-2.811c0.51,-0.633 1.33,-0.95 2.462,-0.95c0.6,0 1.105,0.088 1.515,0.263c0.41,0.176 0.73,0.441 0.959,0.798c0.23,0.356 0.393,0.769 0.489,1.235c0.096,0.467 0.144,1.029 0.144,1.685l0,1.316l-3.972,0l0,1.512c0,0.209 0.001,0.372 0.004,0.488c0.003,0.115 0.012,0.256 0.029,0.42c0.017,0.164 0.044,0.292 0.081,0.381c0.037,0.092 0.086,0.183 0.148,0.277c0.063,0.093 0.145,0.16 0.247,0.2c0.102,0.039 0.22,0.059 0.356,0.059c0.317,0 0.538,-0.112 0.663,-0.335c0.124,-0.224 0.187,-0.548 0.187,-0.972l0,-0.577l2.249,0l0,0.398c0,1.042 -0.259,1.838 -0.776,2.39c-0.519,0.551 -1.29,0.828 -2.314,0.828Zm-13.913,0c-1.082,0 -1.886,-0.304 -2.415,-0.913c-0.53,-0.608 -0.794,-1.478 -0.794,-2.61l0,-3.319c0,-1.132 0.264,-2.002 0.794,-2.611c0.529,-0.608 1.333,-0.912 2.415,-0.912c1.086,0 1.897,0.304 2.431,0.912c0.535,0.609 0.803,1.479 0.803,2.611l0,3.319c0,1.132 -0.268,2.002 -0.803,2.61c-0.534,0.609 -1.345,0.913 -2.431,0.913Zm-31.588,-10.213l2.377,0l0,0.985c0.809,-0.758 1.627,-1.137 2.453,-1.137c0.571,0 0.988,0.209 1.252,0.628c0.263,0.419 0.395,0.934 0.395,1.545l0,8.031l-2.378,0l0,-7.505c0,-0.316 -0.045,-0.552 -0.135,-0.704c-0.091,-0.153 -0.267,-0.227 -0.527,-0.221c-0.294,0.006 -0.648,0.158 -1.061,0.458l0,7.972l-2.376,0l0,-10.052Zm26.698,10.051l-2.378,0l0,-14.075l2.378,0l0,14.075Zm12.165,0l-2.377,0l0,-10.051l2.377,0l0,1.545c0.333,-0.594 0.672,-1.022 1.014,-1.282c0.343,-0.259 0.709,-0.39 1.099,-0.39c0.12,0 0.238,0.014 0.357,0.043l0,2.351c-0.266,-0.102 -0.541,-0.153 -0.824,-0.153c-0.339,0.012 -0.638,0.097 -0.895,0.255c-0.258,0.158 -0.508,0.421 -0.751,0.789l0,6.893Zm-56.241,-14.075l3.446,0c0.651,0 1.219,0.058 1.703,0.174c0.484,0.116 0.914,0.309 1.29,0.577c0.377,0.269 0.661,0.642 0.853,1.117c0.192,0.475 0.286,1.05 0.28,1.723c-0.005,1.738 -0.696,2.708 -2.071,2.912c0.832,0.158 1.453,0.521 1.863,1.09c0.411,0.569 0.619,1.369 0.624,2.398c0.006,1.337 -0.328,2.35 -1.002,3.044c-0.673,0.693 -1.655,1.04 -2.945,1.04l-4.041,0l0,-14.075Zm48.974,12.564c0.192,0 0.349,-0.043 0.471,-0.127c0.122,-0.085 0.209,-0.216 0.263,-0.395c0.054,-0.178 0.089,-0.35 0.106,-0.517c0.018,-0.168 0.026,-0.384 0.026,-0.65l0,-3.642c0,-0.209 -0.005,-0.383 -0.013,-0.521c-0.009,-0.139 -0.028,-0.29 -0.06,-0.455c-0.03,-0.164 -0.077,-0.293 -0.14,-0.386c-0.062,-0.094 -0.147,-0.172 -0.254,-0.238c-0.108,-0.065 -0.24,-0.098 -0.399,-0.098c-0.192,0 -0.35,0.044 -0.471,0.132c-0.122,0.088 -0.21,0.221 -0.263,0.399c-0.054,0.179 -0.09,0.351 -0.107,0.517c-0.017,0.168 -0.025,0.384 -0.025,0.65l0,3.642c0,0.21 0.005,0.383 0.013,0.522c0.008,0.138 0.028,0.288 0.059,0.45c0.031,0.161 0.078,0.289 0.14,0.382c0.062,0.093 0.147,0.172 0.255,0.237c0.107,0.066 0.241,0.098 0.399,0.098Zm-12.454,-0.169c0.181,0 0.361,-0.069 0.54,-0.204c0.177,-0.136 0.32,-0.275 0.428,-0.416l0,-2.768c-1.177,0.652 -1.766,1.39 -1.766,2.216c0,0.362 0.07,0.649 0.208,0.858c0.139,0.208 0.336,0.314 0.59,0.314Zm-24.168,0c0.182,0 0.361,-0.069 0.539,-0.204c0.178,-0.136 0.321,-0.275 0.429,-0.416l0,-2.768c-1.178,0.652 -1.766,1.39 -1.766,2.216c0,0.362 0.069,0.649 0.208,0.858c0.139,0.208 0.335,0.314 0.59,0.314Zm-8.982,-4.848l-0.806,0l0,4.721l0.942,0c0.764,0 1.293,-0.179 1.588,-0.536c0.293,-0.356 0.44,-0.945 0.44,-1.766c0,-0.848 -0.165,-1.464 -0.496,-1.846c-0.331,-0.382 -0.887,-0.573 -1.668,-0.573Zm25.239,1.91c0.395,0 0.653,-0.147 0.772,-0.441c0.119,-0.294 0.179,-0.815 0.179,-1.562c0,-0.77 -0.057,-1.305 -0.17,-1.605c-0.113,-0.3 -0.368,-0.45 -0.764,-0.45c-0.402,0 -0.663,0.151 -0.781,0.455c-0.119,0.302 -0.178,0.836 -0.178,1.6c0,0.271 0.006,0.502 0.017,0.691c0.011,0.19 0.037,0.372 0.076,0.548c0.04,0.175 0.093,0.316 0.161,0.421c0.068,0.104 0.159,0.187 0.272,0.25c0.113,0.062 0.252,0.093 0.416,0.093Zm33.396,-1.477l1.714,0l0,-0.959c0,-0.509 -0.064,-0.875 -0.191,-1.095c-0.127,-0.221 -0.352,-0.331 -0.675,-0.331c-0.328,0 -0.552,0.124 -0.671,0.374c-0.119,0.248 -0.177,0.701 -0.177,1.357l0,0.654Zm-59.085,-6.18l-0.356,0l0,3.939l0.797,0c0.753,0 1.271,-0.162 1.554,-0.484c0.283,-0.322 0.424,-0.866 0.424,-1.63c0,-0.396 -0.046,-0.717 -0.139,-0.963c-0.094,-0.247 -0.25,-0.432 -0.472,-0.556c-0.22,-0.124 -0.465,-0.207 -0.734,-0.247c-0.269,-0.039 -0.627,-0.059 -1.074,-0.059Z" style="fill:#fcaf17;"/></svg>